<?xml version="1.0" encoding="UTF-8" standalone="yes"?>
<svg width="171" height="171" version="1.2" baseProfile="tiny-ps" xmlns="http://www.w3.org/2000/svg">
  <title>bimi-svg-tiny-12-ps</title>
  <defs/>
  <g transform="translate(-260 -159)">
    <path d="M318.461 166.668C327.679 163.449 337.484 162.914 347.05 161.391 354.304 160.443 362.987 158.947 369.026 164.21 364.176 183.728 360.409 205.13 368.719 224.301 375.118 221.428 382.212 222.657 388.945 221.589 394.97 220.707 401.77 222.978 407.047 219.077 407.287 219.224 407.781 219.545 408.022 219.692 408.276 219.852 408.77 220.173 409.01 220.333L409.719 220.734 410.814 221.375C409.946 221.388 408.196 221.402 407.327 221.415 407.154 221.976 406.833 223.072 406.659 223.619 411.722 224.301 415.677 227.534 419.351 230.807 415.744 232.984 411.803 235.389 410.093 239.45 407.327 246.758 400.981 251.888 394.93 256.47 392.565 258.487 389.052 259.008 386.473 257.071 384.763 253.344 387.863 249.47 388.677 245.929 383.815 249.59 380.181 254.947 380.488 261.239 380.168 261.76 379.526 262.789 379.206 263.297 373.715 263.257 371.35 257.218 371.457 252.542 371.404 247.132 374.436 242.202 378.805 239.196 381.437 237.5 382.719 234.614 383.988 231.889 380.542 235.669 377.389 239.931 372.7 242.296 366.888 245.408 360.716 249.737 359.26 256.59 359.541 263.123 359.688 270.337 355.653 275.895 354.264 277.965 351.645 279.261 349.187 278.313 345.513 276.042 345.46 271.259 344.565 267.505 341.185 274.986 341.078 283.763 335.133 289.975 336.068 290.149 337.939 290.496 338.874 290.67 339.956 294.344 337.484 297.457 335.801 300.476 333.837 303.535 334.011 307.302 333.543 310.763 336.937 306.127 342.614 305.699 347.851 304.965 348.546 305.793 349.962 307.449 350.67 308.278 354.411 307.757 357.71 305.82 361.024 304.136 360.97 304.791 360.877 306.1 360.823 306.768 363.629 304.337 366.114 301.585 368.451 298.726 364.176 300.075 359.701 300.796 355.212 300.315 356.228 297.069 357.764 293.622 361.224 292.393 367.276 289.989 373.207 286.916 377.295 281.666 374.677 280.49 371.097 279.876 370.535 276.482 372.219 271.099 375.839 266.156 380.969 263.631L379.206 263.297C383.548 262.816 387.876 262.361 392.244 262.241 391.443 262.802 389.84 263.951 389.038 264.512 392.151 265.114 395.798 266.396 398.604 264.152 403.453 261.346 405.577 255.936 406.833 250.766 408.837 243.258 413.366 236.578 419.564 231.902 422.129 237.967 424.093 244.46 423.532 251.126 422.904 260.678 417.894 269.242 411.976 276.509 411.469 276.269 410.467 275.801 409.959 275.574 404.148 281.465 397.762 286.903 390.388 290.723 386.981 292.62 382.906 293.823 380.702 297.296 374.143 306.434 366.367 314.717 357.51 321.677 354.758 323.828 350.804 325.912 347.397 323.948 341.572 320.862 334.853 318.751 328.226 320.127 326.022 322.158 327.585 326.006 327.117 328.771 317.859 326.353 308.829 321.811 303.431 313.595 294.147 312.406 284.354 309.974 277.461 303.228 273.186 299.113 270.995 292.193 274.148 286.769 279.865 275.761 292.49 271.526 303.458 267.732 299.717 248.16 287.28 231.421 272.01 219.131 268.937 216.953 265.063 216.566 261.55 215.51 263.46 207.241 266.306 198.931 272.224 192.612 284.367 179.253 301.655 172.172 318.461 166.668M327.077 166.147C312.903 169.714 298.996 175.005 286.612 182.86 275.711 189.633 266.439 200.053 264.061 213.012 277.781 215.817 292.196 210.22 301.067 199.532 300.773 200.534 300.479 201.523 300.172 202.525 304.58 207.134 307.025 213.146 309.817 218.783 306.517 217.835 304.781 214.775 302.63 212.397 305.075 217.888 306.865 223.833 310.859 228.455 312.81 230.994 314.399 233.786 316.23 236.418 314.96 232.877 313.504 229.391 312.689 225.717 318.608 233.519 321.186 243.391 327.518 251.019 329.923 249.764 332.328 248.494 334.759 247.279 328.173 254.894 318.314 257.953 308.829 260.077 311.18 260.611 313.558 260.999 315.949 261.333 318.153 266.743 320.451 272.141 321.747 277.858 322.335 280.477 323.844 282.748 325.448 284.859 328.347 282.561 330.297 279.381 332.274 276.322 332.835 276.188 333.944 275.921 334.505 275.788 338.887 264.94 344.364 254.493 351.138 244.941 357.016 236.645 365.98 231.261 375.024 227.013 377.883 225.596 381.677 226.131 383.922 223.593 381.624 223.245 379.206 223.299 377.162 224.528 369.4 227.6 361.758 231.501 355.733 237.379 349.04 244.38 344.124 252.783 338.78 260.785 342.107 252.222 347.41 244.62 353.222 237.58 353.248 236.418 353.275 234.12 353.302 232.958 348.319 236.498 343.496 240.265 338.834 244.206 340.45 241.735 342.12 239.29 343.763 236.845 335.146 218.903 329.923 199.559 325.969 180.135 320.799 183.688 315.869 187.602 310.512 190.875 320.09 181.364 331.379 173.401 343.87 168.218 349.775 165.653 356.201 164.838 362.333 163.035 350.51 162.046 338.7 164.25 327.077 166.147M343.723 171.865C342.601 178.919 344.819 185.852 344.979 192.879 344.364 192.719 343.122 192.398 342.494 192.238 342.467 185.826 341.84 179.186 339.315 173.214 339.742 185.465 342.28 197.609 345.34 209.445 345.326 204.756 344.645 200.107 343.616 195.538 344.231 194.629 344.845 193.734 345.473 192.839 346.155 199.853 347.17 206.813 348.025 213.8 349.08 218.823 349.855 224.648 354.17 228.041 353.943 223.619 351.766 219.585 351.472 215.19 351.325 207.655 348.693 200.508 347.704 193.08 346.261 186.039 346.168 178.678 343.723 171.865M329.188 177.997C328.4 181.831 329.429 185.772 329.763 189.62 332.475 205.517 337.925 220.867 345.086 235.269 346.622 233.746 348.159 232.209 349.695 230.7 342.935 212.464 338.313 193.547 334.732 174.47 332.849 175.579 330.925 176.648 329.188 177.997M390.588 235.856C392.445 234.908 394.035 233.559 395.464 232.049 397.628 231.782 400.18 231.568 401.249 229.297 402.718 226.518 405.617 224.007 405.23 220.613 398.871 223.379 390.588 227.934 390.588 235.856M373.141 247.118C372.045 252.85 372.219 260.718 379.019 262.682 378.818 254.439 383.601 245.943 392.244 244.54 389.8 248.027 386.3 251.661 387.221 256.296 389.011 257.405 391.416 257.672 393.206 256.363 399.672 252.903 398.457 244.273 400.407 238.194 390.975 239.958 381.757 242.857 373.141 247.118M346.676 267.358C345.246 271.179 347.277 278.246 352.287 277.417 358.793 272.728 358.659 263.591 358.004 256.403 353.997 259.77 349.388 262.762 346.676 267.358M371.497 276.656C372.793 279.582 376.16 279.622 378.845 280.17 376.774 283.79 374.223 287.37 370.375 289.267 365.325 292.246 357.924 293.141 356.441 299.901 361.411 299.701 366.18 298.258 370.763 296.401 368.398 299.714 366.661 303.842 363.068 306.02 359.461 307.316 355.68 308.077 351.966 309.026 349.708 309.827 348.399 307.262 346.729 306.247 343.857 306.768 340.838 306.875 338.112 308.037 336.162 309.694 335.106 312.085 333.744 314.196 333.37 311.911 332.915 309.627 332.835 307.316 332.301 301.104 338.339 296.922 338.299 290.777 336.776 291.779 335.293 292.807 333.784 293.823 334.438 286.435 341.238 281.345 340.958 273.61 332.541 283.002 328.841 295.279 322.495 305.953 325.808 309.974 326.623 315.238 324.967 320.167 329.602 315.545 336.068 318.872 341.519 319.566 345.754 320.087 350.349 322.813 354.371 320.154 360.943 316.32 365.967 310.375 370.829 304.631 379.713 293.222 387.261 280.65 392.351 267.104 390.12 265.287 387.529 262.589 384.376 263.764 377.776 264.86 373.862 270.965 371.497 276.656M278.489 285.901C275.55 288.987 273.787 293.743 275.831 297.791 278.663 303.428 284.701 306.862 290.633 308.371 308.094 311.39 325.554 299.006 331.232 282.801 328.2 286.609 325.301 290.576 321.4 293.556 314.653 290.403 306.584 285.62 306.931 277.07 296.872 275.32 285.516 278.232 278.489 285.901M305.983 309.921C310.205 313.14 314.079 316.921 319.022 319.085 319.783 318.284 321.279 316.694 322.041 315.906 319.93 313.648 318.046 310.749 314.84 310.014 311.928 309.373 308.922 309.787 305.983 309.921Z"/>
    <path d="M412.537 216.632C412.457 214.735 413.272 214.001 415.009 214.441 415.784 216.031 415.289 217.046 413.553 217.487 413.299 217.274 412.791 216.846 412.537 216.632Z"/>
    <path d="M421.034 229.818C422.103 228.268 424.614 227.6 426.284 228.509 426.404 230.566 422.731 231.622 421.181 230.58L421.034 229.818Z"/>
    <path d="M327.077 166.147C338.7 164.25 350.51 162.046 362.333 163.035 356.201 164.838 349.775 165.653 343.87 168.218 331.379 173.401 320.09 181.364 310.512 190.875 315.869 187.602 320.799 183.688 325.969 180.135 329.923 199.559 335.146 218.903 343.763 236.845 342.12 239.29 340.45 241.735 338.834 244.206 343.496 240.265 348.319 236.498 353.302 232.958 353.275 234.12 353.248 236.418 353.222 237.58 347.41 244.62 342.107 252.222 338.78 260.785 344.124 252.783 349.04 244.38 355.733 237.379 361.758 231.501 369.4 227.6 377.162 224.528 379.206 223.299 381.624 223.245 383.922 223.593 381.677 226.131 377.883 225.596 375.024 227.013 365.98 231.261 357.016 236.645 351.138 244.941 344.364 254.493 338.887 264.94 334.505 275.788 333.944 275.921 332.835 276.188 332.274 276.322 330.297 279.381 328.347 282.561 325.448 284.859 323.844 282.748 322.335 280.477 321.747 277.858 320.451 272.141 318.153 266.743 315.949 261.333 313.558 260.999 311.18 260.611 308.829 260.077 318.314 257.953 328.173 254.894 334.759 247.279 332.328 248.494 329.923 249.764 327.518 251.019 321.186 243.391 318.608 233.519 312.689 225.717 313.504 229.391 314.96 232.877 316.23 236.418 314.399 233.786 312.81 230.994 310.859 228.455 306.865 223.833 305.075 217.888 302.63 212.397 304.781 214.775 306.517 217.835 309.817 218.783 307.025 213.146 304.58 207.134 300.172 202.525 300.479 201.523 300.773 200.534 301.067 199.532 292.196 210.22 277.781 215.817 264.061 213.012 266.439 200.053 275.711 189.633 286.612 182.86 298.996 175.005 312.903 169.714 327.077 166.147Z" fill="#FE0000"/>
    <path d="M343.723 171.865C346.168 178.678 346.261 186.039 347.704 193.08 348.693 200.508 351.325 207.655 351.472 215.19 351.766 219.585 353.943 223.619 354.17 228.041 349.855 224.648 349.08 218.823 348.025 213.8 347.17 206.813 346.155 199.853 345.473 192.839 344.845 193.734 344.231 194.629 343.616 195.538 344.645 200.107 345.326 204.756 345.34 209.445 342.28 197.609 339.742 185.465 339.315 173.214 341.84 179.186 342.467 185.826 342.494 192.238 343.122 192.398 344.364 192.719 344.979 192.879 344.819 185.852 342.601 178.919 343.723 171.865Z" fill="#FE0000"/>
    <path d="M329.188 177.997C330.925 176.648 332.849 175.579 334.732 174.47 338.313 193.547 342.935 212.464 349.695 230.7 348.159 232.209 346.622 233.746 345.086 235.269 337.925 220.867 332.475 205.517 329.763 189.62 329.429 185.772 328.4 181.831 329.188 177.997Z" fill="#FE0000"/>
    <path d="M373.141 247.118C381.757 242.857 390.975 239.958 400.407 238.194 398.457 244.273 399.672 252.903 393.206 256.363 391.416 257.672 389.011 257.405 387.221 256.296 386.3 251.661 389.8 248.027 392.244 244.54 383.601 245.943 378.818 254.439 379.019 262.682 372.219 260.718 372.045 252.85 373.141 247.118Z" fill="#FE0000"/>
    <path d="M346.676 267.358C349.388 262.762 353.997 259.77 358.004 256.403 358.659 263.591 358.793 272.728 352.287 277.417 347.277 278.246 345.246 271.179 346.676 267.358Z" fill="#FE0000"/>
    <path d="M371.497 276.656C373.862 270.965 377.776 264.86 384.376 263.764 387.529 262.589 390.12 265.287 392.351 267.104 387.261 280.65 379.713 293.222 370.829 304.631 365.967 310.375 360.943 316.32 354.371 320.154 350.349 322.813 345.754 320.087 341.519 319.566 336.068 318.872 329.602 315.545 324.967 320.167 326.623 315.238 325.808 309.974 322.495 305.953 328.841 295.279 332.541 283.002 340.958 273.61 341.238 281.345 334.438 286.435 333.784 293.823 335.293 292.807 336.776 291.779 338.299 290.777 338.339 296.922 332.301 301.104 332.835 307.316 332.915 309.627 333.37 311.911 333.744 314.196 335.106 312.085 336.162 309.694 338.112 308.037 340.838 306.875 343.857 306.768 346.729 306.247 348.399 307.262 349.708 309.827 351.966 309.026 355.68 308.077 359.461 307.316 363.068 306.02 366.661 303.842 368.398 299.714 370.763 296.401 366.18 298.258 361.411 299.701 356.441 299.901 357.924 293.141 365.325 292.246 370.375 289.267 374.223 287.37 376.774 283.79 378.845 280.17 376.16 279.622 372.793 279.582 371.497 276.656Z" fill="#FE0000"/>
    <path d="M278.489 285.901C285.516 278.232 296.872 275.32 306.931 277.07 306.584 285.62 314.653 290.403 321.4 293.556 325.301 290.576 328.2 286.609 331.232 282.801 325.554 299.006 308.094 311.39 290.633 308.371 284.701 306.862 278.663 303.428 275.831 297.791 273.787 293.743 275.55 288.987 278.489 285.901Z" fill="#FE0000"/>
    <path d="M305.983 309.921C308.922 309.787 311.928 309.373 314.84 310.014 318.046 310.749 319.93 313.648 322.041 315.906 321.279 316.694 319.783 318.284 319.022 319.085 314.079 316.921 310.205 313.14 305.983 309.921Z" fill="#FE0000"/>
    <path d="M412.537 216.632C412.791 216.846 413.299 217.274 413.553 217.487 412.738 219.09 411.455 220.173 409.719 220.734L409.01 220.333C408.77 220.173 408.276 219.852 408.022 219.692L408.102 219.304C409.585 218.423 411.068 217.541 412.537 216.632Z" fill="#FFFFFF"/>
    <path d="M390.588 235.856C390.588 227.934 398.871 223.379 405.23 220.613 405.617 224.007 402.718 226.518 401.249 229.297 400.18 231.568 397.628 231.782 395.464 232.049 394.035 233.559 392.445 234.908 390.588 235.856Z" fill="#FFFFFF"/>
    <path d="M419.351 230.807C419.778 230.566 420.62 230.072 421.034 229.818L421.181 230.58C420.78 230.9 419.965 231.568 419.564 231.902 413.366 236.578 408.837 243.258 406.833 250.766 405.577 255.936 403.453 261.346 398.604 264.152 395.798 266.396 392.151 265.114 389.038 264.512 389.84 263.951 391.443 262.802 392.244 262.241 387.876 262.361 383.548 262.816 379.206 263.297 379.526 262.789 380.168 261.76 380.488 261.239 380.181 254.947 383.815 249.59 388.677 245.929 387.863 249.47 384.763 253.344 386.473 257.071 389.052 259.008 392.565 258.487 394.93 256.47 400.981 251.888 407.327 246.758 410.093 239.45 411.803 235.389 415.744 232.984 419.351 230.807Z" fill="#FFFFFF"/>
    <path d="M372.7 242.296C377.389 239.931 380.542 235.669 383.988 231.889 382.719 234.614 381.437 237.5 378.805 239.196 374.436 242.202 371.404 247.132 371.457 252.542 371.35 257.218 373.715 263.257 379.206 263.297L380.969 263.631C375.839 266.156 372.219 271.099 370.535 276.482 371.097 279.876 374.677 280.49 377.295 281.666 373.207 286.916 367.276 289.989 361.224 292.393 357.764 293.622 356.228 297.069 355.212 300.315 359.701 300.796 364.176 300.075 368.451 298.726 366.114 301.585 363.629 304.337 360.823 306.768 360.877 306.1 360.97 304.791 361.024 304.136 357.71 305.82 354.411 307.757 350.67 308.278 349.962 307.449 348.546 305.793 347.851 304.965 342.614 305.699 336.937 306.127 333.543 310.763 334.011 307.302 333.837 303.535 335.801 300.476 337.484 297.457 339.956 294.344 338.874 290.67 337.939 290.496 336.068 290.149 335.133 289.975 341.078 283.763 341.185 274.986 344.565 267.505 345.46 271.259 345.513 276.042 349.187 278.313 351.645 279.261 354.264 277.965 355.653 275.895 359.688 270.337 359.541 263.123 359.26 256.59 360.716 249.737 366.888 245.408 372.7 242.296Z" fill="#FFFFFF"/>
  </g>
</svg>